<?xml version="1.0" encoding="utf-8"?>
<!-- Generator: Adobe Illustrator 27.9.4, SVG Export Plug-In . SVG Version: 9.03 Build 54784)  -->
<svg version="1.1" id="レイヤー_1" xmlns="http://www.w3.org/2000/svg" xmlns:xlink="http://www.w3.org/1999/xlink" x="0px"
	 y="0px" viewBox="0 0 1440 130" style="enable-background:new 0 0 1440 130;" xml:space="preserve">
<style type="text/css">
	.st0{fill:#88443E;}
</style>
<path class="st0" d="M0,28.3l48-4.8c48-5.1,144-13.9,240-9.5S480,38,576,56.6s192,38.1,288,52c96,14.5,192,23.3,288,9.4
	c96-14.5,192-51.7,240-70.8l48-18.8V0h-48c-48,0-144,0-240,0S960,0,864,0S672,0,576,0S384,0,288,0S96,0,48,0H0V28.3z"/>
</svg>
